<?xml version="1.0" encoding="UTF-8"?>
<svg xmlns="http://www.w3.org/2000/svg" id="Layer_2" data-name="Layer 2" viewBox="0 0 379.43 63.43">
  <defs>
    <style>
      .cls-1 {
        fill: #000;
      }

      .cls-1, .cls-2 {
        stroke-width: 0px;
      }

      .cls-2 {
        fill: #31fd6d;
      }
    </style>
  </defs>
  <g id="Camada_1" data-name="Camada 1">
    <g>
      <g>
        <path class="cls-1" d="M83.66,8.78c0-1.55,1.27-2.88,2.94-2.88,1.55,0,2.77,1.33,2.77,2.88v34.72c0,1.55-1.22,2.88-2.77,2.88-1.66,0-2.94-1.33-2.94-2.88v-1.16c-1.61,2.77-5.15,4.32-8.64,4.32-6.98,0-12.96-5.32-12.96-13.46s5.87-13.51,12.9-13.51c3.65,0,7.09,1.44,8.69,4.26v-15.17ZM75.68,25.23c-4.32,0-7.81,3.1-7.81,7.86s3.49,8.03,7.81,8.03,7.92-2.99,7.92-8.03-4.04-7.86-7.92-7.86Z"></path>
        <path class="cls-1" d="M119.32,35.2h-18c.55,3.99,3.77,6.48,7.92,6.48,2.71,0,4.26-.94,6.15-2.49.94-.78,2.49-1.16,3.65-.22,1.05.83,1.11,2.55.11,3.6-2.6,2.71-6.37,4.1-10.19,4.1-7.37,0-13.29-5.37-13.29-13.57s5.93-13.4,13.29-13.4,12.74,4.98,12.96,12.9c0,1.5-1.22,2.6-2.6,2.6ZM116.33,31.04c-.55-4.04-3.49-6.37-7.37-6.37s-7.09,2.38-7.64,6.37h15.01Z"></path>
        <path class="cls-1" d="M140.59,43.78c-.66,1.61-1.77,2.6-3.43,2.6h-.33c-1.66,0-2.82-1-3.49-2.6l-8.42-20.21c-.61-1.44.33-3.27,1.88-3.54,1.5-.28,2.88.44,3.43,1.88l6.76,16.95,6.76-16.95c.55-1.44,1.94-2.16,3.43-1.88,1.55.28,2.49,2.1,1.88,3.54l-8.47,20.21Z"></path>
        <path class="cls-1" d="M158.75,44.5c0,1.05-.78,1.88-1.83,1.88s-1.83-.83-1.83-1.88v-22.65c0-1.05.78-1.88,1.83-1.88s1.83.83,1.83,1.88v2.66c1.61-3.38,5.59-4.82,8.58-4.82,6.31,0,10.02,4.32,9.97,11.35v13.46c0,1.05-.78,1.88-1.83,1.88s-1.83-.83-1.83-1.88v-13.46c0-4.76-2.33-7.7-6.31-7.7s-8.58,2.33-8.58,8.64v12.52Z"></path>
        <path class="cls-1" d="M184.17,33.09c0-8.2,6.15-13.4,13.51-13.4s13.51,5.21,13.51,13.4-6.15,13.57-13.51,13.57-13.51-5.37-13.51-13.57ZM207.55,33.09c0-5.98-4.49-9.75-9.86-9.75s-9.86,3.77-9.86,9.75,4.49,9.91,9.86,9.91,9.86-3.93,9.86-9.91Z"></path>
        <path class="cls-1" d="M222.06,44.5c0,1.05-.78,1.88-1.83,1.88s-1.83-.83-1.83-1.88V7.84c0-1.05.78-1.88,1.83-1.88s1.83.83,1.83,1.88v36.66Z"></path>
        <path class="cls-1" d="M229.25,33.09c0-8.2,6.15-13.4,13.51-13.4s13.51,5.21,13.51,13.4-6.15,13.57-13.51,13.57-13.51-5.37-13.51-13.57ZM252.63,33.09c0-5.98-4.49-9.75-9.86-9.75s-9.86,3.77-9.86,9.75,4.49,9.91,9.86,9.91,9.86-3.93,9.86-9.91Z"></path>
        <path class="cls-1" d="M264.92,51.31c.89-.61,1.94-.22,2.55.61,1.88,2.33,4.49,3.32,7.09,3.32,5.98,0,10.19-3.38,10.13-13.96-1.72,3.38-5.98,5.37-9.75,5.37-7.37,0-13.24-5.21-13.24-13.4s5.87-13.57,13.24-13.57c3.77,0,7.81,1.72,9.75,4.98v-2.82c0-1.05.78-1.88,1.83-1.88s1.83.83,1.83,1.88v20.05c0,12.68-5.65,17-13.79,17-3.77,0-7.75-1.44-10.19-5.04-.61-.89-.33-1.99.55-2.55ZM274.94,42.95c4.65,0,9.75-3.32,9.75-9.69s-4.49-9.86-9.75-9.86-9.53,4.1-9.53,9.86,4.15,9.69,9.53,9.69Z"></path>
        <path class="cls-1" d="M303.58,57.63c-.39,1-1.33,1.5-2.33,1.22-1-.28-1.44-1.44-1.05-2.44l4.26-10.36-9.75-23.65c-.39-1,.22-2.16,1.22-2.38.94-.22,1.77.06,2.33,1.44l8.2,19.83,8.31-19.83c.55-1.38,1.38-1.66,2.33-1.44,1,.22,1.55,1.38,1.22,2.38l-14.73,35.22Z"></path>
      </g>
      <path class="cls-2" d="M61.14,3.22C58.99-.01,54.73-.97,51.63,1.08c0,0-45.77,28.82-47.02,29.78-1.05.81-2.17,1.55-2.96,2.55-.53.63-.92,1.34-1.19,2.11-1.19,3.24,0,6.9,2.96,8.59l28.9,18.44c3.32,1.9,7.64.61,9.63-2.86,1.98-3.48.89-7.85-2.43-9.75l-19.09-12.18L59.43,12.82c3.09-2.06,3.86-6.36,1.71-9.6Z"></path>
      <path class="cls-2" d="M318.29,60.21c2.15,3.24,6.42,4.2,9.51,2.14,0,0,45.77-28.82,47.02-29.78,1.05-.81,2.17-1.55,2.96-2.55.53-.63.92-1.34,1.19-2.11,1.19-3.24,0-6.9-2.96-8.59L347.11.88c-3.32-1.9-7.64-.61-9.63,2.86-1.98,3.48-.89,7.85,2.43,9.75l19.09,12.18-39,24.95c-3.09,2.06-3.86,6.36-1.71,9.6Z"></path>
    </g>
  </g>
</svg>
